<svg id="visual" viewBox="0 0 900 600" width="900" height="600" xmlns="http://www.w3.org/2000/svg" xmlns:xlink="http://www.w3.org/1999/xlink" version="1.1"><rect x="0" y="0" width="900" height="600" fill="#000000"></rect><defs><linearGradient id="grad1_0" x1="33.3%" y1="0%" x2="100%" y2="100%"><stop offset="20%" stop-color="#000000" stop-opacity="1"></stop><stop offset="80%" stop-color="#000000" stop-opacity="1"></stop></linearGradient></defs><defs><linearGradient id="grad2_0" x1="0%" y1="0%" x2="66.7%" y2="100%"><stop offset="20%" stop-color="#000000" stop-opacity="1"></stop><stop offset="80%" stop-color="#000000" stop-opacity="1"></stop></linearGradient></defs><g transform="translate(900, 0)"><path d="M0 405.6C-47.9 381.9 -95.8 358.2 -138.9 335.4C-182 312.5 -220.3 290.5 -262.3 262.3C-304.4 234.2 -350.2 200 -374.7 155.2C-399.3 110.5 -402.4 55.2 -405.6 0L0 0Z" fill="#01A7C2"></path></g><g transform="translate(0, 600)"><path d="M0 -405.6C56.3 -404.2 112.7 -402.8 155.2 -374.7C197.8 -346.7 226.5 -292.1 246.8 -246.8C267.1 -201.5 278.9 -165.5 304 -125.9C329 -86.3 367.3 -43.2 405.6 0L0 0Z" fill="#01A7C2"></path></g></svg>