<?xml version="1.0" encoding="UTF-8" standalone="no"?><!DOCTYPE svg PUBLIC "-//W3C//DTD SVG 1.1//EN" "http://www.w3.org/Graphics/SVG/1.1/DTD/svg11.dtd"><svg width="100%" height="100%" viewBox="0 0 4307 3966" version="1.1" xmlns="http://www.w3.org/2000/svg" xmlns:xlink="http://www.w3.org/1999/xlink" xml:space="preserve" xmlns:serif="http://www.serif.com/" style="fill-rule:evenodd;clip-rule:evenodd;stroke-linejoin:round;stroke-miterlimit:2;"><rect id="Artboard1" x="-0" y="0" width="4306.569" height="3965.937" style="fill:none;"/><clipPath id="_clip1"><rect x="-0" y="0" width="4306.569" height="3965.937"/></clipPath><g clip-path="url(#_clip1)"><rect x="0" y="0" width="4306.569" height="3965.937" style="fill:#fff;"/><g><g><clipPath id="_clip2"><path d="M3903.76,1226.887l-915.918,915.918c-301.286,-109.668 -575.798,-274.805 -811.54,-482.926c-19.206,-16.781 -38.005,-33.952 -56.624,-51.367l2.669,-2.539l1080.208,-1080.339c193.669,-193.669 507.536,-193.669 701.204,0c193.701,193.669 193.701,507.536 0,701.253Z"/></clipPath><g clip-path="url(#_clip2)"><g><clipPath id="_clip3"><path d="M3903.76,1226.887l-915.918,915.918c-301.286,-109.668 -575.798,-274.805 -811.54,-482.926c-19.206,-16.781 -38.005,-33.952 -56.624,-51.367l2.669,-2.539l1080.208,-1080.339c193.669,-193.669 507.536,-193.669 701.204,0c193.701,193.669 193.701,507.536 0,701.253"/></clipPath><g clip-path="url(#_clip3)"><rect x="2119.678" y="331.965" width="1977.783" height="1810.84" style="fill:url(#_Linear4);fill-rule:nonzero;"/></g></g></g></g></g><g><g><clipPath id="_clip5"><path d="M2987.842,2142.805l-514.909,514.909c-96.924,96.924 -223.763,145.329 -350.716,145.329c-126.839,0 -253.792,-48.405 -350.537,-145.329l-1430.876,-1430.827c-193.669,-193.717 -193.669,-507.585 0,-701.253c193.538,-193.669 507.536,-193.669 701.253,0l1134.245,1134.245c235.742,208.122 510.254,373.258 811.54,482.926Z"/></clipPath><g clip-path="url(#_clip5)"><g><clipPath id="_clip6"><path d="M2987.842,2142.805l-514.909,514.909c-96.924,96.924 -223.763,145.329 -350.716,145.329c-126.839,0 -253.792,-48.405 -350.537,-145.329l-1430.876,-1430.827c-193.669,-193.717 -193.669,-507.585 0,-701.253c193.538,-193.669 507.536,-193.669 701.253,0l1134.245,1134.245c235.742,208.122 510.254,373.258 811.54,482.926"/></clipPath><g clip-path="url(#_clip6)"><rect x="147.136" y="331.965" width="2840.706" height="2471.077" style="fill:#2b708e;fill-rule:nonzero;"/></g></g></g></g></g><g><g><clipPath id="_clip7"><path d="M4046.257,2004.084l-206.006,135.596c-128.32,84.408 -250.326,178.369 -362.321,283.529c-192.09,180.42 -357.259,381.169 -415.674,653.923c-46.875,218.538 6.169,470.036 179.036,611.751c161.963,132.796 416.927,139.453 581.348,9.668c159.082,-125.586 215.072,-342.92 220.736,-545.508c10.628,-380.16 2.881,-767.822 2.881,-1148.958Z"/></clipPath><g clip-path="url(#_clip7)"><g><clipPath id="_clip8"><path d="M4046.257,2004.084l-206.006,135.596c-128.32,84.408 -250.326,178.369 -362.321,283.529c-192.09,180.42 -357.259,381.169 -415.674,653.923c-46.875,218.538 6.169,470.036 179.036,611.751c161.963,132.796 416.927,139.453 581.348,9.668c159.082,-125.586 215.072,-342.92 220.736,-545.508c10.628,-380.16 2.881,-767.822 2.881,-1148.958"/></clipPath><g clip-path="url(#_clip8)"><path d="M4098.845,2005.191l-1082.829,-26.628l-45.459,1848.682l1082.829,26.628l45.459,-1848.682Z" style="fill:url(#_Linear9);fill-rule:nonzero;"/></g></g></g></g></g><g><g><clipPath id="_clip10"><path d="M198.259,2004.084l206.006,135.596c128.32,84.408 250.374,178.369 362.321,283.529c192.09,180.42 357.259,381.169 415.674,653.923c46.875,218.538 -6.169,470.036 -179.036,611.751c-161.963,132.796 -416.927,139.453 -581.331,9.668c-159.098,-125.586 -215.088,-342.92 -220.752,-545.508c-10.628,-380.16 -2.881,-767.822 -2.881,-1148.958Z"/></clipPath><g clip-path="url(#_clip10)"><g><clipPath id="_clip11"><path d="M198.259,2004.084l206.006,135.596c128.32,84.408 250.374,178.369 362.321,283.529c192.09,180.42 357.259,381.169 415.674,653.923c46.875,218.538 -6.169,470.036 -179.036,611.751c-161.963,132.796 -416.927,139.453 -581.331,9.668c-159.098,-125.586 -215.088,-342.92 -220.752,-545.508c-10.628,-380.16 -2.881,-767.822 -2.881,-1148.958"/></clipPath><g clip-path="url(#_clip11)"><path d="M100.635,3823.908l1125.977,55.599l92.383,-1870.98l-1125.96,-55.599l-92.399,1870.98Z" style="fill:url(#_Linear12);fill-rule:nonzero;"/></g></g></g></g></g></g><defs><linearGradient id="_Linear4" x1="0" y1="0" x2="1" y2="0" gradientUnits="userSpaceOnUse" gradientTransform="matrix(1977.790736,0,0,1977.790736,2119.675487,1261.589813)"><stop offset="0" style="stop-color:#1d4669;stop-opacity:1"/><stop offset="0.4" style="stop-color:#1d466a;stop-opacity:1"/><stop offset="0.41" style="stop-color:#1d476a;stop-opacity:1"/><stop offset="0.41" style="stop-color:#1d476b;stop-opacity:1"/><stop offset="0.42" style="stop-color:#1d486c;stop-opacity:1"/><stop offset="0.43" style="stop-color:#1e486c;stop-opacity:1"/><stop offset="0.44" style="stop-color:#1e496d;stop-opacity:1"/><stop offset="0.45" style="stop-color:#1f4a6d;stop-opacity:1"/><stop offset="0.45" style="stop-color:#1f4a6e;stop-opacity:1"/><stop offset="0.46" style="stop-color:#1f4b6f;stop-opacity:1"/><stop offset="0.47" style="stop-color:#1f4c6f;stop-opacity:1"/><stop offset="0.47" style="stop-color:#1f4c70;stop-opacity:1"/><stop offset="0.48" style="stop-color:#1f4d71;stop-opacity:1"/><stop offset="0.49" style="stop-color:#204d71;stop-opacity:1"/><stop offset="0.5" style="stop-color:#204e72;stop-opacity:1"/><stop offset="0.5" style="stop-color:#204f72;stop-opacity:1"/><stop offset="0.52" style="stop-color:#205073;stop-opacity:1"/><stop offset="0.53" style="stop-color:#205074;stop-opacity:1"/><stop offset="0.55" style="stop-color:#215275;stop-opacity:1"/><stop offset="0.55" style="stop-color:#215276;stop-opacity:1"/><stop offset="0.55" style="stop-color:#215376;stop-opacity:1"/><stop offset="0.56" style="stop-color:#225376;stop-opacity:1"/><stop offset="0.56" style="stop-color:#225377;stop-opacity:1"/><stop offset="0.57" style="stop-color:#225477;stop-opacity:1"/><stop offset="0.6" style="stop-color:#225779;stop-opacity:1"/><stop offset="0.61" style="stop-color:#23577a;stop-opacity:1"/><stop offset="0.62" style="stop-color:#23587a;stop-opacity:1"/><stop offset="0.62" style="stop-color:#23587b;stop-opacity:1"/><stop offset="0.63" style="stop-color:#23597b;stop-opacity:1"/><stop offset="0.63" style="stop-color:#23597c;stop-opacity:1"/><stop offset="0.63" style="stop-color:#235a7c;stop-opacity:1"/><stop offset="0.64" style="stop-color:#245a7c;stop-opacity:1"/><stop offset="0.66" style="stop-color:#245b7d;stop-opacity:1"/><stop offset="0.67" style="stop-color:#255d7f;stop-opacity:1"/><stop offset="0.68" style="stop-color:#255d7f;stop-opacity:1"/><stop offset="0.68" style="stop-color:#255e7f;stop-opacity:1"/><stop offset="0.69" style="stop-color:#255e80;stop-opacity:1"/><stop offset="0.7" style="stop-color:#255f80;stop-opacity:1"/><stop offset="0.71" style="stop-color:#256082;stop-opacity:1"/><stop offset="0.72" style="stop-color:#266182;stop-opacity:1"/><stop offset="0.72" style="stop-color:#266183;stop-opacity:1"/><stop offset="0.73" style="stop-color:#266283;stop-opacity:1"/><stop offset="0.73" style="stop-color:#266283;stop-opacity:1"/><stop offset="0.75" style="stop-color:#266484;stop-opacity:1"/><stop offset="0.76" style="stop-color:#266485;stop-opacity:1"/><stop offset="0.77" style="stop-color:#276585;stop-opacity:1"/><stop offset="0.77" style="stop-color:#276586;stop-opacity:1"/><stop offset="0.82" style="stop-color:#286a89;stop-opacity:1"/><stop offset="0.83" style="stop-color:#286a8a;stop-opacity:1"/><stop offset="0.84" style="stop-color:#296c8b;stop-opacity:1"/><stop offset="0.84" style="stop-color:#286c8b;stop-opacity:1"/><stop offset="0.85" style="stop-color:#296d8b;stop-opacity:1"/><stop offset="0.91" style="stop-color:#2b718f;stop-opacity:1"/><stop offset="0.95" style="stop-color:#2c7492;stop-opacity:1"/><stop offset="0.95" style="stop-color:#2c7593;stop-opacity:1"/><stop offset="0.96" style="stop-color:#2d7693;stop-opacity:1"/><stop offset="1" style="stop-color:#2d7894;stop-opacity:1"/></linearGradient><linearGradient id="_Linear9" x1="0" y1="0" x2="1" y2="0" gradientUnits="userSpaceOnUse" gradientTransform="matrix(-45.45915,1848.672697,-1848.672697,-45.45915,3574.127609,1992.287836)"><stop offset="0" style="stop-color:#2b7290;stop-opacity:1"/><stop offset="0.03" style="stop-color:#2b7290;stop-opacity:1"/><stop offset="0.09" style="stop-color:#2b7492;stop-opacity:1"/><stop offset="0.11" style="stop-color:#2c7492;stop-opacity:1"/><stop offset="0.13" style="stop-color:#2c7592;stop-opacity:1"/><stop offset="0.14" style="stop-color:#2c7593;stop-opacity:1"/><stop offset="0.16" style="stop-color:#2c7693;stop-opacity:1"/><stop offset="0.17" style="stop-color:#2d7693;stop-opacity:1"/><stop offset="0.18" style="stop-color:#2d7694;stop-opacity:1"/><stop offset="0.22" style="stop-color:#2d7794;stop-opacity:1"/><stop offset="1" style="stop-color:#2d7894;stop-opacity:1"/></linearGradient><linearGradient id="_Linear12" x1="0" y1="0" x2="1" y2="0" gradientUnits="userSpaceOnUse" gradientTransform="matrix(92.394124,-1870.979158,1870.979158,92.394124,637.951122,3850.436314)"><stop offset="0" style="stop-color:#245b7d;stop-opacity:1"/><stop offset="0.02" style="stop-color:#245c7e;stop-opacity:1"/><stop offset="0.03" style="stop-color:#255c7e;stop-opacity:1"/><stop offset="0.05" style="stop-color:#255d7f;stop-opacity:1"/><stop offset="0.05" style="stop-color:#255d7f;stop-opacity:1"/><stop offset="0.06" style="stop-color:#255e7f;stop-opacity:1"/><stop offset="0.08" style="stop-color:#255e80;stop-opacity:1"/><stop offset="0.09" style="stop-color:#255f80;stop-opacity:1"/><stop offset="0.13" style="stop-color:#256082;stop-opacity:1"/><stop offset="0.14" style="stop-color:#266182;stop-opacity:1"/><stop offset="0.16" style="stop-color:#266183;stop-opacity:1"/><stop offset="0.16" style="stop-color:#266283;stop-opacity:1"/><stop offset="0.17" style="stop-color:#266284;stop-opacity:1"/><stop offset="0.22" style="stop-color:#266485;stop-opacity:1"/><stop offset="0.27" style="stop-color:#276686;stop-opacity:1"/><stop offset="0.31" style="stop-color:#276888;stop-opacity:1"/><stop offset="0.33" style="stop-color:#286988;stop-opacity:1"/><stop offset="0.34" style="stop-color:#286989;stop-opacity:1"/><stop offset="0.36" style="stop-color:#286a89;stop-opacity:1"/><stop offset="0.41" style="stop-color:#296c8b;stop-opacity:1"/><stop offset="0.42" style="stop-color:#296d8b;stop-opacity:1"/><stop offset="0.44" style="stop-color:#296d8c;stop-opacity:1"/><stop offset="0.48" style="stop-color:#2a6f8d;stop-opacity:1"/><stop offset="0.53" style="stop-color:#2b718f;stop-opacity:1"/><stop offset="0.56" style="stop-color:#2b7290;stop-opacity:1"/><stop offset="0.59" style="stop-color:#2b7492;stop-opacity:1"/><stop offset="0.61" style="stop-color:#2c7492;stop-opacity:1"/><stop offset="0.63" style="stop-color:#2c7592;stop-opacity:1"/><stop offset="0.64" style="stop-color:#2c7693;stop-opacity:1"/><stop offset="0.65" style="stop-color:#2d7693;stop-opacity:1"/><stop offset="0.67" style="stop-color:#2d7794;stop-opacity:1"/><stop offset="1" style="stop-color:#2d7894;stop-opacity:1"/></linearGradient></defs></svg>